<svg width="32" height="32" viewBox="0 0 32 32" fill="none" xmlns="http://www.w3.org/2000/svg">
<path d="M29.3334 15.9999V22.6666C29.3334 26.6666 26.6667 29.3333 22.6667 29.3333H9.33335C5.33335 29.3333 2.66669 26.6666 2.66669 22.6666V15.9999C2.66669 12.3733 4.85335 9.83992 8.25335 9.41325C8.60002 9.35992 8.96002 9.33325 9.33335 9.33325H22.6667C23.0134 9.33325 23.3467 9.34657 23.6667 9.3999C27.1067 9.7999 29.3334 12.3466 29.3334 15.9999Z" stroke="black" stroke-width="1.5" stroke-linecap="round" stroke-linejoin="round"/>
<path opacity="0.4" d="M23.6667 9.40008C23.3467 9.34675 23.0134 9.33343 22.6667 9.33343H9.33336C8.96002 9.33343 8.60002 9.36009 8.25336 9.41343C8.44002 9.04009 8.70669 8.69343 9.02669 8.37343L13.36 4.02675C15.1867 2.21341 18.1467 2.21341 19.9734 4.02675L22.3067 6.38677C23.16 7.22677 23.6134 8.29341 23.6667 9.40008Z" stroke="black" stroke-width="1.5" stroke-linecap="round" stroke-linejoin="round"/>
<path opacity="0.4" d="M29.3334 16.6667H25.3334C23.8667 16.6667 22.6667 17.8667 22.6667 19.3334C22.6667 20.8001 23.8667 22.0001 25.3334 22.0001H29.3334" stroke="black" stroke-width="1.5" stroke-linecap="round" stroke-linejoin="round"/>
</svg>
