<svg width="32" height="24" viewBox="0 0 32 24" fill="none" xmlns="http://www.w3.org/2000/svg">
<path d="M10.7645 22C21.2817 22 27.0331 14.3062 27.0331 7.63445C27.0331 7.41592 27.0281 7.19838 27.017 6.98182C28.1334 6.26915 29.1038 5.37978 29.8692 4.36735C28.8447 4.76947 27.7422 5.04016 26.5856 5.16222C27.7661 4.53715 28.6724 3.54837 29.1 2.36963C27.9952 2.94794 26.7718 3.36826 25.4692 3.59519C24.4258 2.61382 22.9403 2 21.2955 2C18.1379 2 15.5773 4.26111 15.5773 7.04826C15.5773 7.44446 15.6275 7.82984 15.7256 8.1995C10.9734 7.98835 6.75953 5.97926 3.93936 2.92431C3.44831 3.67045 3.16516 4.53718 3.16516 5.46199C3.16516 7.21367 4.17461 8.76005 5.70964 9.66471C4.77155 9.63912 3.89031 9.41173 3.12009 9.03324C3.11924 9.05442 3.11924 9.07508 3.11924 9.09772C3.11924 11.5429 5.09016 13.5844 7.70646 14.047C7.226 14.1627 6.72049 14.2247 6.19874 14.2247C5.83087 14.2247 5.47247 14.1928 5.12411 14.1337C5.85205 16.1398 7.96289 17.5996 10.4655 17.6404C8.50848 18.9949 6.04322 19.8016 3.36389 19.8016C2.90293 19.8016 2.44756 19.7785 2 19.7317C4.53054 21.164 7.53532 21.9997 10.7648 21.9997" fill="black"/>
</svg>
